<?xml version="1.0" encoding="UTF-8" standalone="no"?>
<!DOCTYPE svg PUBLIC "-//W3C//DTD SVG 1.1//EN"
 "http://www.w3.org/Graphics/SVG/1.1/DTD/svg11.dtd">
<!-- Generated by graphviz version 2.43.0 (0)
 -->
<!-- Title: %3 Pages: 1 -->
<svg width="1440pt" height="764pt"
 viewBox="0.00 0.00 1440.00 763.64" xmlns="http://www.w3.org/2000/svg" xmlns:xlink="http://www.w3.org/1999/xlink">
<g id="graph0" class="graph" transform="scale(1.28 1.28) rotate(0) translate(4 976)">
<title>%3</title>
<polygon fill="white" stroke="transparent" points="-4,4 -4,-976 1844,-976 1844,4 -4,4"/>
<!-- Lack of Affordable Housing -->
<g id="node1" class="node">
<title>Lack of Affordable Housing</title>
<polygon fill="#fcc30b" stroke="black" points="1454,-972 1284,-972 1284,-936 1454,-936 1454,-972"/>
<text text-anchor="middle" x="1369" y="-950.3" font-family="Times,serif" font-size="14.00">Lack of Affordable Housing</text>
</g>
<!-- Lack of Community Networks -->
<g id="node7" class="node">
<title>Lack of Community Networks</title>
<polygon fill="#fd6925" stroke="black" points="1581.5,-900 1396.5,-900 1396.5,-864 1581.5,-864 1581.5,-900"/>
<text text-anchor="middle" x="1489" y="-878.3" font-family="Times,serif" font-size="14.00">Lack of Community Networks</text>
</g>
<!-- Lack of Affordable Housing&#45;&gt;Lack of Community Networks -->
<g id="edge1" class="edge">
<title>Lack of Affordable Housing&#45;&gt;Lack of Community Networks</title>
<path fill="none" stroke="black" d="M1398.36,-935.88C1414.05,-926.72 1433.56,-915.34 1450.45,-905.48"/>
<polygon fill="black" stroke="black" points="1452.66,-908.25 1459.53,-900.19 1449.13,-902.21 1452.66,-908.25"/>
</g>
<!-- Lack of Political Voice -->
<g id="node25" class="node">
<title>Lack of Political Voice</title>
<polygon fill="#fd6925" stroke="black" points="1565.5,-324 1424.5,-324 1424.5,-288 1565.5,-288 1565.5,-324"/>
<text text-anchor="middle" x="1495" y="-302.3" font-family="Times,serif" font-size="14.00">Lack of Political Voice</text>
</g>
<!-- Lack of Affordable Housing&#45;&gt;Lack of Political Voice -->
<g id="edge4" class="edge">
<title>Lack of Affordable Housing&#45;&gt;Lack of Political Voice</title>
<path fill="none" stroke="black" d="M1454.07,-952.54C1564.61,-950.29 1749.79,-940.38 1803,-900 1837.12,-874.1 1840,-853.84 1840,-811 1840,-811 1840,-811 1840,-521 1840,-397.2 1677.58,-342.54 1575.62,-320.42"/>
<polygon fill="black" stroke="black" points="1576.16,-316.96 1565.65,-318.32 1574.71,-323.81 1576.16,-316.96"/>
</g>
<!-- Social Inequity -->
<g id="node26" class="node">
<title>Social Inequity</title>
<polygon fill="#fd6925" stroke="black" points="1474.5,-756 1375.5,-756 1375.5,-720 1474.5,-720 1474.5,-756"/>
<text text-anchor="middle" x="1425" y="-734.3" font-family="Times,serif" font-size="14.00">Social Inequity</text>
</g>
<!-- Lack of Affordable Housing&#45;&gt;Social Inequity -->
<g id="edge3" class="edge">
<title>Lack of Affordable Housing&#45;&gt;Social Inequity</title>
<path fill="none" stroke="black" d="M1372.25,-935.85C1375.76,-917.86 1381.69,-888.81 1388,-864 1396.68,-829.88 1408.47,-791.07 1416.39,-765.87"/>
<polygon fill="black" stroke="black" points="1419.75,-766.86 1419.43,-756.27 1413.07,-764.75 1419.75,-766.86"/>
</g>
<!-- Sprawl -->
<g id="node27" class="node">
<title>Sprawl</title>
<polygon fill="#3f7e44" stroke="black" points="724.5,-828 669.5,-828 669.5,-792 724.5,-792 724.5,-828"/>
<text text-anchor="middle" x="697" y="-806.3" font-family="Times,serif" font-size="14.00">Sprawl</text>
</g>
<!-- Lack of Affordable Housing&#45;&gt;Sprawl -->
<g id="edge2" class="edge">
<title>Lack of Affordable Housing&#45;&gt;Sprawl</title>
<path fill="none" stroke="black" d="M1283.86,-949.82C1191.2,-944.77 1039.53,-931.95 913,-900 847.68,-883.51 775.9,-852.75 733.6,-832.07"/>
<polygon fill="black" stroke="black" points="735.04,-828.88 724.53,-827.57 731.93,-835.15 735.04,-828.88"/>
</g>
<!-- Unrest &amp; Injustice -->
<g id="node29" class="node">
<title>Unrest &amp; Injustice</title>
<polygon fill="#fd6925" stroke="black" points="1622,-468 1504,-468 1504,-432 1622,-432 1622,-468"/>
<text text-anchor="middle" x="1563" y="-446.3" font-family="Times,serif" font-size="14.00">Unrest &amp; Injustice</text>
</g>
<!-- Lack of Affordable Housing&#45;&gt;Unrest &amp; Injustice -->
<g id="edge5" class="edge">
<title>Lack of Affordable Housing&#45;&gt;Unrest &amp; Injustice</title>
<path fill="none" stroke="black" d="M1454.02,-952.78C1559.5,-950.71 1731.16,-940.93 1778,-900 1808.85,-873.04 1802,-851.97 1802,-811 1802,-811 1802,-811 1802,-737 1802,-613.76 1669.73,-515.6 1601.99,-473.41"/>
<polygon fill="black" stroke="black" points="1603.62,-470.31 1593.27,-468.07 1599.97,-476.28 1603.62,-470.31"/>
</g>
<!-- Air &amp; Ozone Degradation -->
<g id="node2" class="node">
<title>Air &amp; Ozone Degradation</title>
<polygon fill="#56c02b" stroke="black" points="1066.5,-252 907.5,-252 907.5,-216 1066.5,-216 1066.5,-252"/>
<text text-anchor="middle" x="987" y="-230.3" font-family="Times,serif" font-size="14.00">Air &amp; Ozone Degradation</text>
</g>
<!-- Lack of Healthcare -->
<g id="node14" class="node">
<title>Lack of Healthcare</title>
<polygon fill="#fcc30b" stroke="black" points="910.5,-828 789.5,-828 789.5,-792 910.5,-792 910.5,-828"/>
<text text-anchor="middle" x="850" y="-806.3" font-family="Times,serif" font-size="14.00">Lack of Healthcare</text>
</g>
<!-- Air &amp; Ozone Degradation&#45;&gt;Lack of Healthcare -->
<g id="edge6" class="edge">
<title>Air &amp; Ozone Degradation&#45;&gt;Lack of Healthcare</title>
<path fill="none" stroke="black" d="M963.72,-252.14C921.81,-285.16 838,-362.08 838,-449 838,-667 838,-667 838,-667 838,-707.15 842.82,-753.45 846.35,-781.98"/>
<polygon fill="black" stroke="black" points="842.89,-782.51 847.63,-791.99 849.84,-781.63 842.89,-782.51"/>
</g>
<!-- Biodiversity Loss -->
<g id="node3" class="node">
<title>Biodiversity Loss</title>
<polygon fill="#56c02b" stroke="black" points="369.5,-180 256.5,-180 256.5,-144 369.5,-144 369.5,-180"/>
<text text-anchor="middle" x="313" y="-158.3" font-family="Times,serif" font-size="14.00">Biodiversity Loss</text>
</g>
<!-- Land Conversion -->
<g id="node19" class="node">
<title>Land Conversion</title>
<polygon fill="#56c02b" stroke="black" points="388,-108 278,-108 278,-72 388,-72 388,-108"/>
<text text-anchor="middle" x="333" y="-86.3" font-family="Times,serif" font-size="14.00">Land Conversion</text>
</g>
<!-- Biodiversity Loss&#45;&gt;Land Conversion -->
<g id="edge7" class="edge">
<title>Biodiversity Loss&#45;&gt;Land Conversion</title>
<path fill="none" stroke="black" d="M312.03,-143.7C313.47,-135.81 315.97,-126.3 318.84,-117.55"/>
<polygon fill="black" stroke="black" points="322.15,-118.7 322.22,-108.1 315.56,-116.34 322.15,-118.7"/>
</g>
<!-- Chemical Pollution -->
<g id="node4" class="node">
<title>Chemical Pollution</title>
<polygon fill="#56c02b" stroke="black" points="738,-252 616,-252 616,-216 738,-216 738,-252"/>
<text text-anchor="middle" x="677" y="-230.3" font-family="Times,serif" font-size="14.00">Chemical Pollution</text>
</g>
<!-- Chemical Pollution&#45;&gt;Biodiversity Loss -->
<g id="edge10" class="edge">
<title>Chemical Pollution&#45;&gt;Biodiversity Loss</title>
<path fill="none" stroke="black" d="M615.66,-221.2C550.33,-208.64 447.25,-188.82 379.87,-175.86"/>
<polygon fill="black" stroke="black" points="380.27,-172.37 369.79,-173.92 378.95,-179.25 380.27,-172.37"/>
</g>
<!-- Freshwater Depletion -->
<g id="node13" class="node">
<title>Freshwater Depletion</title>
<polygon fill="#56c02b" stroke="black" points="758,-180 624,-180 624,-144 758,-144 758,-180"/>
<text text-anchor="middle" x="691" y="-158.3" font-family="Times,serif" font-size="14.00">Freshwater Depletion</text>
</g>
<!-- Chemical Pollution&#45;&gt;Freshwater Depletion -->
<g id="edge8" class="edge">
<title>Chemical Pollution&#45;&gt;Freshwater Depletion</title>
<path fill="none" stroke="black" d="M680.46,-215.7C682,-207.98 683.86,-198.71 685.58,-190.11"/>
<polygon fill="black" stroke="black" points="689.05,-190.6 687.58,-180.1 682.19,-189.22 689.05,-190.6"/>
</g>
<!-- Chemical Pollution&#45;&gt;Lack of Healthcare -->
<g id="edge9" class="edge">
<title>Chemical Pollution&#45;&gt;Lack of Healthcare</title>
<path fill="none" stroke="black" d="M664.48,-252.38C657.81,-262.37 649.98,-275.41 645,-288 630.12,-325.61 626,-336.55 626,-377 626,-667 626,-667 626,-667 626,-740.8 713.8,-777.85 779.46,-795.24"/>
<polygon fill="black" stroke="black" points="778.83,-798.69 789.38,-797.76 780.55,-791.91 778.83,-798.69"/>
</g>
<!-- Clean Water Shortage -->
<g id="node5" class="node">
<title>Clean Water Shortage</title>
<polygon fill="#fcc30b" stroke="black" points="676,-108 540,-108 540,-72 676,-72 676,-108"/>
<text text-anchor="middle" x="608" y="-86.3" font-family="Times,serif" font-size="14.00">Clean Water Shortage</text>
</g>
<!-- Clean Water Shortage&#45;&gt;Lack of Healthcare -->
<g id="edge11" class="edge">
<title>Clean Water Shortage&#45;&gt;Lack of Healthcare</title>
<path fill="none" stroke="black" d="M605.15,-108.25C600.83,-138.07 594.37,-200.99 607,-252 615.7,-287.12 624.16,-294.42 645,-324 657.5,-341.74 666.58,-341.54 678,-360 768.81,-506.84 825.16,-709.49 843.45,-781.92"/>
<polygon fill="black" stroke="black" points="840.06,-782.78 845.87,-791.64 846.85,-781.09 840.06,-782.78"/>
</g>
<!-- Climate Change -->
<g id="node6" class="node">
<title>Climate Change</title>
<polygon fill="#56c02b" stroke="black" points="435.5,-900 330.5,-900 330.5,-864 435.5,-864 435.5,-900"/>
<text text-anchor="middle" x="383" y="-878.3" font-family="Times,serif" font-size="14.00">Climate Change</text>
</g>
<!-- Climate Change&#45;&gt;Biodiversity Loss -->
<g id="edge14" class="edge">
<title>Climate Change&#45;&gt;Biodiversity Loss</title>
<path fill="none" stroke="black" d="M335.14,-863.92C285.8,-842.88 216,-801.98 216,-739 216,-739 216,-739 216,-305 216,-264.55 212.42,-249.56 235,-216 243.32,-203.64 255.58,-193.37 267.92,-185.26"/>
<polygon fill="black" stroke="black" points="269.77,-188.24 276.44,-180 266.09,-182.28 269.77,-188.24"/>
</g>
<!-- Energy Shortage -->
<g id="node10" class="node">
<title>Energy Shortage</title>
<polygon fill="#fcc30b" stroke="black" points="914.5,-108 807.5,-108 807.5,-72 914.5,-72 914.5,-108"/>
<text text-anchor="middle" x="861" y="-86.3" font-family="Times,serif" font-size="14.00">Energy Shortage</text>
</g>
<!-- Climate Change&#45;&gt;Energy Shortage -->
<g id="edge13" class="edge">
<title>Climate Change&#45;&gt;Energy Shortage</title>
<path fill="none" stroke="black" d="M435.53,-868.99C496.26,-851.63 588,-813.14 588,-739 588,-739 588,-739 588,-449 588,-332.27 750.55,-418.56 819,-324 830.97,-307.46 849.66,-176.23 857.43,-118.31"/>
<polygon fill="black" stroke="black" points="860.94,-118.45 858.79,-108.08 854,-117.53 860.94,-118.45"/>
</g>
<!-- Food Shortage -->
<g id="node11" class="node">
<title>Food Shortage</title>
<polygon fill="#fcc30b" stroke="black" points="522,-36 426,-36 426,0 522,0 522,-36"/>
<text text-anchor="middle" x="474" y="-14.3" font-family="Times,serif" font-size="14.00">Food Shortage</text>
</g>
<!-- Climate Change&#45;&gt;Food Shortage -->
<g id="edge12" class="edge">
<title>Climate Change&#45;&gt;Food Shortage</title>
<path fill="none" stroke="black" d="M330.23,-873.14C233.58,-855.45 38,-802.86 38,-667 38,-667 38,-667 38,-449 38,-352.4 0,-331.6 0,-235 0,-235 0,-235 0,-161 0,-75.15 288.96,-36.79 415.65,-24.1"/>
<polygon fill="black" stroke="black" points="416.33,-27.55 425.94,-23.09 415.65,-20.59 416.33,-27.55"/>
</g>
<!-- Climate Change&#45;&gt;Freshwater Depletion -->
<g id="edge17" class="edge">
<title>Climate Change&#45;&gt;Freshwater Depletion</title>
<path fill="none" stroke="black" d="M430.86,-863.92C480.2,-842.88 550,-801.98 550,-739 550,-739 550,-739 550,-377 550,-301.09 559.62,-275.3 607,-216 616.89,-203.62 630.5,-193.3 643.89,-185.16"/>
<polygon fill="black" stroke="black" points="645.7,-188.15 652.61,-180.12 642.2,-182.09 645.7,-188.15"/>
</g>
<!-- Climate Change&#45;&gt;Lack of Healthcare -->
<g id="edge15" class="edge">
<title>Climate Change&#45;&gt;Lack of Healthcare</title>
<path fill="none" stroke="black" d="M435.66,-873.11C519.9,-860.48 685.04,-835.73 779.41,-821.58"/>
<polygon fill="black" stroke="black" points="780.07,-825.02 789.44,-820.08 779.03,-818.1 780.07,-825.02"/>
</g>
<!-- Climate Change&#45;&gt;Land Conversion -->
<g id="edge18" class="edge">
<title>Climate Change&#45;&gt;Land Conversion</title>
<path fill="none" stroke="black" d="M330.43,-871.59C299.49,-863.95 261.06,-850.62 233,-828 196.8,-798.82 178,-785.5 178,-739 178,-739 178,-739 178,-233 178,-175.64 236.43,-135.19 281.54,-112.5"/>
<polygon fill="black" stroke="black" points="283.19,-115.59 290.65,-108.07 280.12,-109.3 283.19,-115.59"/>
</g>
<!-- Climate Change&#45;&gt;Social Inequity -->
<g id="edge16" class="edge">
<title>Climate Change&#45;&gt;Social Inequity</title>
<path fill="none" stroke="black" d="M435.65,-877.12C531.88,-869.74 742.52,-852.21 919,-828 1081.21,-805.75 1270.95,-769.65 1365.35,-751"/>
<polygon fill="black" stroke="black" points="1366.15,-754.41 1375.28,-749.03 1364.79,-747.54 1366.15,-754.41"/>
</g>
<!-- Lack of Community Networks&#45;&gt;Lack of Healthcare -->
<g id="edge19" class="edge">
<title>Lack of Community Networks&#45;&gt;Lack of Healthcare</title>
<path fill="none" stroke="black" d="M1396.43,-870.86C1267.67,-856.75 1037.28,-831.52 921.11,-818.79"/>
<polygon fill="black" stroke="black" points="921.24,-815.28 910.91,-817.67 920.47,-822.24 921.24,-815.28"/>
</g>
<!-- Lack of Community Networks&#45;&gt;Social Inequity -->
<g id="edge20" class="edge">
<title>Lack of Community Networks&#45;&gt;Social Inequity</title>
<path fill="none" stroke="black" d="M1476.7,-863.87C1463.11,-839.46 1442.54,-794.43 1431.6,-765.64"/>
<polygon fill="black" stroke="black" points="1434.87,-764.39 1428.16,-756.19 1428.29,-766.78 1434.87,-764.39"/>
</g>
<!-- Discrimination -->
<g id="node8" class="node">
<title>Discrimination</title>
<polygon fill="#dd1367" stroke="black" points="1250,-324 1152,-324 1152,-288 1250,-288 1250,-324"/>
<text text-anchor="middle" x="1201" y="-302.3" font-family="Times,serif" font-size="14.00">Discrimination</text>
</g>
<!-- Economic Inequality -->
<g id="node9" class="node">
<title>Economic Inequality</title>
<polygon fill="#dd1367" stroke="black" points="1195.5,-612 1064.5,-612 1064.5,-576 1195.5,-576 1195.5,-612"/>
<text text-anchor="middle" x="1130" y="-590.3" font-family="Times,serif" font-size="14.00">Economic Inequality</text>
</g>
<!-- Discrimination&#45;&gt;Economic Inequality -->
<g id="edge21" class="edge">
<title>Discrimination&#45;&gt;Economic Inequality</title>
<path fill="none" stroke="black" d="M1195.23,-324.04C1187.72,-343.85 1172.79,-376.34 1150,-396 1116.75,-424.68 1082.75,-395.73 1058,-432 1027.64,-476.48 1072.99,-535.85 1104.35,-568.64"/>
<polygon fill="black" stroke="black" points="1102.07,-571.32 1111.57,-576 1107.06,-566.41 1102.07,-571.32"/>
</g>
<!-- Discrimination&#45;&gt;Social Inequity -->
<g id="edge22" class="edge">
<title>Discrimination&#45;&gt;Social Inequity</title>
<path fill="none" stroke="black" d="M1174.2,-324.01C1132.92,-350.85 1057.06,-402.96 1043,-432 1008.06,-504.2 1012.1,-544.87 1056,-612 1122.88,-714.27 1279.13,-734.45 1365.3,-737.47"/>
<polygon fill="black" stroke="black" points="1365.36,-740.97 1375.46,-737.75 1365.56,-733.97 1365.36,-740.97"/>
</g>
<!-- Economic Inequality&#45;&gt;Lack of Affordable Housing -->
<g id="edge24" class="edge">
<title>Economic Inequality&#45;&gt;Lack of Affordable Housing</title>
<path fill="none" stroke="black" d="M1101.98,-612.06C1067.36,-635.53 1013,-681.26 1013,-737 1013,-811 1013,-811 1013,-811 1013,-867.24 1168.23,-911.13 1273.69,-934.45"/>
<polygon fill="black" stroke="black" points="1273.21,-937.93 1283.73,-936.64 1274.71,-931.09 1273.21,-937.93"/>
</g>
<!-- Inflation -->
<g id="node17" class="node">
<title>Inflation</title>
<polygon fill="#26bde2" stroke="black" points="1129.5,-468 1066.5,-468 1066.5,-432 1129.5,-432 1129.5,-468"/>
<text text-anchor="middle" x="1098" y="-446.3" font-family="Times,serif" font-size="14.00">Inflation</text>
</g>
<!-- Economic Inequality&#45;&gt;Inflation -->
<g id="edge23" class="edge">
<title>Economic Inequality&#45;&gt;Inflation</title>
<path fill="none" stroke="black" d="M1121.56,-575.87C1113.54,-551.67 1103.23,-507.21 1098.71,-478.39"/>
<polygon fill="black" stroke="black" points="1102.14,-477.61 1097.28,-468.19 1095.21,-478.58 1102.14,-477.61"/>
</g>
<!-- Economic Inequality&#45;&gt;Social Inequity -->
<g id="edge25" class="edge">
<title>Economic Inequality&#45;&gt;Social Inequity</title>
<path fill="none" stroke="black" d="M1147.65,-612.12C1169.06,-632.02 1207.01,-664.58 1245,-684 1283.05,-703.45 1329.36,-716.88 1365.48,-725.36"/>
<polygon fill="black" stroke="black" points="1364.86,-728.8 1375.38,-727.62 1366.41,-721.98 1364.86,-728.8"/>
</g>
<!-- Systemic Corruption -->
<g id="node28" class="node">
<title>Systemic Corruption</title>
<polygon fill="#dd1367" stroke="black" points="1265,-540 1135,-540 1135,-504 1265,-504 1265,-540"/>
<text text-anchor="middle" x="1200" y="-518.3" font-family="Times,serif" font-size="14.00">Systemic Corruption</text>
</g>
<!-- Economic Inequality&#45;&gt;Systemic Corruption -->
<g id="edge26" class="edge">
<title>Economic Inequality&#45;&gt;Systemic Corruption</title>
<path fill="none" stroke="black" d="M1141.39,-575.7C1149.14,-567.05 1159.57,-556.45 1169.53,-547.03"/>
<polygon fill="black" stroke="black" points="1172.04,-549.47 1177,-540.1 1167.29,-544.33 1172.04,-549.47"/>
</g>
<!-- Energy Shortage&#45;&gt;Lack of Affordable Housing -->
<g id="edge27" class="edge">
<title>Energy Shortage&#45;&gt;Lack of Affordable Housing</title>
<path fill="none" stroke="black" d="M914.63,-93.39C1114.14,-102.98 1802,-142.59 1802,-233 1802,-523 1802,-523 1802,-523 1802,-619.6 1764,-640.4 1764,-737 1764,-811 1764,-811 1764,-811 1764,-874.46 1581.16,-917.3 1464.27,-938.2"/>
<polygon fill="black" stroke="black" points="1463.46,-934.79 1454.22,-939.97 1464.68,-941.68 1463.46,-934.79"/>
</g>
<!-- Low Education -->
<g id="node20" class="node">
<title>Low Education</title>
<polygon fill="#fd6925" stroke="black" points="1354,-684 1254,-684 1254,-648 1354,-648 1354,-684"/>
<text text-anchor="middle" x="1304" y="-662.3" font-family="Times,serif" font-size="14.00">Low Education</text>
</g>
<!-- Energy Shortage&#45;&gt;Low Education -->
<g id="edge28" class="edge">
<title>Energy Shortage&#45;&gt;Low Education</title>
<path fill="none" stroke="black" d="M859.85,-108.27C857.3,-155.99 854.33,-292.91 895,-396 938.94,-507.38 955.22,-547.35 1056,-612 1112.8,-648.44 1190.49,-660.24 1243.69,-663.85"/>
<polygon fill="black" stroke="black" points="1243.8,-667.36 1253.99,-664.47 1244.22,-660.37 1243.8,-667.36"/>
</g>
<!-- Food Shortage&#45;&gt;Lack of Community Networks -->
<g id="edge29" class="edge">
<title>Food Shortage&#45;&gt;Lack of Community Networks</title>
<path fill="none" stroke="black" d="M522.13,-19.25C703.45,-20.54 1345.11,-28.16 1544,-72 1647,-94.7 1764,-55.52 1764,-161 1764,-307 1764,-307 1764,-307 1764,-467 1726,-505 1726,-665 1726,-739 1726,-739 1726,-739 1726,-805.95 1655.54,-842.11 1591.46,-861.15"/>
<polygon fill="black" stroke="black" points="1590.3,-857.84 1581.65,-863.95 1592.23,-864.57 1590.3,-857.84"/>
</g>
<!-- Food Shortage&#45;&gt;Lack of Healthcare -->
<g id="edge30" class="edge">
<title>Food Shortage&#45;&gt;Lack of Healthcare</title>
<path fill="none" stroke="black" d="M481.69,-36.09C492.79,-62.38 512,-114.55 512,-161 512,-235 512,-235 512,-235 512,-351.66 664,-332.34 664,-449 664,-523 664,-523 664,-523 664,-636.52 768.26,-740.37 820.66,-785.4"/>
<polygon fill="black" stroke="black" points="818.4,-788.07 828.3,-791.86 822.93,-782.73 818.4,-788.07"/>
</g>
<!-- Food Shortage&#45;&gt;Social Inequity -->
<g id="edge31" class="edge">
<title>Food Shortage&#45;&gt;Social Inequity</title>
<path fill="none" stroke="black" d="M522.34,-19.48C748.13,-22.36 1688,-41.5 1688,-161 1688,-595 1688,-595 1688,-595 1688,-686.75 1562.54,-719.5 1484.93,-730.98"/>
<polygon fill="black" stroke="black" points="1484.2,-727.55 1474.78,-732.4 1485.17,-734.48 1484.2,-727.55"/>
</g>
<!-- Fossil Fuel Dependency -->
<g id="node12" class="node">
<title>Fossil Fuel Dependency</title>
<polygon fill="#3f7e44" stroke="black" points="157,-972 9,-972 9,-936 157,-936 157,-972"/>
<text text-anchor="middle" x="83" y="-950.3" font-family="Times,serif" font-size="14.00">Fossil Fuel Dependency</text>
</g>
<!-- Fossil Fuel Dependency&#45;&gt;Chemical Pollution -->
<g id="edge33" class="edge">
<title>Fossil Fuel Dependency&#45;&gt;Chemical Pollution</title>
<path fill="none" stroke="black" d="M86.14,-935.98C94.02,-891.79 114,-769.63 114,-667 114,-667 114,-667 114,-377 114,-326.84 454.38,-268.83 605.81,-245.51"/>
<polygon fill="black" stroke="black" points="606.59,-248.93 615.95,-243.96 605.53,-242.01 606.59,-248.93"/>
</g>
<!-- Fossil Fuel Dependency&#45;&gt;Climate Change -->
<g id="edge34" class="edge">
<title>Fossil Fuel Dependency&#45;&gt;Climate Change</title>
<path fill="none" stroke="black" d="M156,-935.97C206.36,-924.22 272.6,-908.76 320.52,-897.58"/>
<polygon fill="black" stroke="black" points="321.51,-900.94 330.46,-895.26 319.92,-894.12 321.51,-900.94"/>
</g>
<!-- Nitrogen &amp; Phosphorous Loading -->
<g id="node23" class="node">
<title>Nitrogen &amp; Phosphorous Loading</title>
<polygon fill="#56c02b" stroke="black" points="446,-252 244,-252 244,-216 446,-216 446,-252"/>
<text text-anchor="middle" x="345" y="-230.3" font-family="Times,serif" font-size="14.00">Nitrogen &amp; Phosphorous Loading</text>
</g>
<!-- Fossil Fuel Dependency&#45;&gt;Nitrogen &amp; Phosphorous Loading -->
<g id="edge32" class="edge">
<title>Fossil Fuel Dependency&#45;&gt;Nitrogen &amp; Phosphorous Loading</title>
<path fill="none" stroke="black" d="M82.29,-935.92C80.51,-891.56 76,-769.07 76,-667 76,-667 76,-667 76,-377 76,-336.03 70.31,-316.23 100,-288 119.71,-269.26 178.56,-256.19 233.64,-247.71"/>
<polygon fill="black" stroke="black" points="234.5,-251.12 243.87,-246.18 233.46,-244.2 234.5,-251.12"/>
</g>
<!-- Ocean Degradation -->
<g id="node24" class="node">
<title>Ocean Degradation</title>
<polygon fill="#56c02b" stroke="black" points="150,-252 28,-252 28,-216 150,-216 150,-252"/>
<text text-anchor="middle" x="89" y="-230.3" font-family="Times,serif" font-size="14.00">Ocean Degradation</text>
</g>
<!-- Fossil Fuel Dependency&#45;&gt;Ocean Degradation -->
<g id="edge35" class="edge">
<title>Fossil Fuel Dependency&#45;&gt;Ocean Degradation</title>
<path fill="none" stroke="black" d="M64.58,-935.64C40.13,-910.62 0,-861.83 0,-811 0,-811 0,-811 0,-449 0,-376.17 44.49,-299.36 70.55,-260.59"/>
<polygon fill="black" stroke="black" points="73.66,-262.25 76.44,-252.03 67.89,-258.29 73.66,-262.25"/>
</g>
<!-- Freshwater Depletion&#45;&gt;Clean Water Shortage -->
<g id="edge36" class="edge">
<title>Freshwater Depletion&#45;&gt;Clean Water Shortage</title>
<path fill="none" stroke="black" d="M670.48,-143.7C660.13,-134.97 647.41,-124.24 636.16,-114.75"/>
<polygon fill="black" stroke="black" points="638.18,-111.88 628.28,-108.1 633.67,-117.23 638.18,-111.88"/>
</g>
<!-- Freshwater Depletion&#45;&gt;Energy Shortage -->
<g id="edge38" class="edge">
<title>Freshwater Depletion&#45;&gt;Energy Shortage</title>
<path fill="none" stroke="black" d="M732.59,-143.88C756.03,-134.22 785.5,-122.09 810.3,-111.88"/>
<polygon fill="black" stroke="black" points="811.63,-115.11 819.55,-108.07 808.97,-108.64 811.63,-115.11"/>
</g>
<!-- Freshwater Depletion&#45;&gt;Food Shortage -->
<g id="edge37" class="edge">
<title>Freshwater Depletion&#45;&gt;Food Shortage</title>
<path fill="none" stroke="black" d="M695.27,-143.76C699.05,-124.06 701.68,-91.97 685,-72 665.62,-48.81 588.01,-33.9 532.55,-25.98"/>
<polygon fill="black" stroke="black" points="532.85,-22.49 522.47,-24.58 531.89,-29.42 532.85,-22.49"/>
</g>
<!-- Lack of Healthcare&#45;&gt;Lack of Affordable Housing -->
<g id="edge40" class="edge">
<title>Lack of Healthcare&#45;&gt;Lack of Affordable Housing</title>
<path fill="none" stroke="black" d="M872.31,-828.23C900.27,-848.87 950.43,-882.8 999,-900 1088.86,-931.82 1197.43,-944.58 1273.64,-949.67"/>
<polygon fill="black" stroke="black" points="1273.51,-953.16 1283.71,-950.31 1273.95,-946.18 1273.51,-953.16"/>
</g>
<!-- Lack of Healthcare&#45;&gt;Low Education -->
<g id="edge41" class="edge">
<title>Lack of Healthcare&#45;&gt;Low Education</title>
<path fill="none" stroke="black" d="M904.76,-791.87C990.46,-765.07 1155.61,-713.41 1244.27,-685.68"/>
<polygon fill="black" stroke="black" points="1245.41,-688.99 1253.91,-682.67 1243.32,-682.31 1245.41,-688.99"/>
</g>
<!-- Lack of Healthcare&#45;&gt;Social Inequity -->
<g id="edge39" class="edge">
<title>Lack of Healthcare&#45;&gt;Social Inequity</title>
<path fill="none" stroke="black" d="M910.73,-796.45C919.52,-794.83 928.48,-793.29 937,-792 1090.69,-768.68 1273.13,-751.68 1365.31,-743.84"/>
<polygon fill="black" stroke="black" points="1365.62,-747.33 1375.29,-743 1365.03,-740.35 1365.62,-747.33"/>
</g>
<!-- Polluting Industry -->
<g id="node15" class="node">
<title>Polluting Industry</title>
<polygon fill="#3f7e44" stroke="black" points="1057.5,-324 942.5,-324 942.5,-288 1057.5,-288 1057.5,-324"/>
<text text-anchor="middle" x="1000" y="-302.3" font-family="Times,serif" font-size="14.00">Polluting Industry</text>
</g>
<!-- Polluting Industry&#45;&gt;Air &amp; Ozone Degradation -->
<g id="edge44" class="edge">
<title>Polluting Industry&#45;&gt;Air &amp; Ozone Degradation</title>
<path fill="none" stroke="black" d="M996.79,-287.7C995.35,-279.98 993.63,-270.71 992.04,-262.11"/>
<polygon fill="black" stroke="black" points="995.44,-261.3 990.18,-252.1 988.56,-262.58 995.44,-261.3"/>
</g>
<!-- Polluting Industry&#45;&gt;Chemical Pollution -->
<g id="edge43" class="edge">
<title>Polluting Industry&#45;&gt;Chemical Pollution</title>
<path fill="none" stroke="black" d="M942.25,-292.49C887.88,-280.7 806.29,-263.02 747.97,-250.38"/>
<polygon fill="black" stroke="black" points="748.6,-246.94 738.09,-248.24 747.12,-253.78 748.6,-246.94"/>
</g>
<!-- Inefficiency -->
<g id="node16" class="node">
<title>Inefficiency</title>
<polygon fill="#26bde2" stroke="black" points="1167,-252 1085,-252 1085,-216 1167,-216 1167,-252"/>
<text text-anchor="middle" x="1126" y="-230.3" font-family="Times,serif" font-size="14.00">Inefficiency</text>
</g>
<!-- Polluting Industry&#45;&gt;Inefficiency -->
<g id="edge42" class="edge">
<title>Polluting Industry&#45;&gt;Inefficiency</title>
<path fill="none" stroke="black" d="M1030.82,-287.88C1047.45,-278.64 1068.16,-267.13 1086.02,-257.21"/>
<polygon fill="black" stroke="black" points="1088.02,-260.11 1095.06,-252.19 1084.62,-253.99 1088.02,-260.11"/>
</g>
<!-- Inflation&#45;&gt;Economic Inequality -->
<g id="edge45" class="edge">
<title>Inflation&#45;&gt;Economic Inequality</title>
<path fill="none" stroke="black" d="M1106.46,-468.19C1114.48,-492.42 1124.79,-536.89 1129.3,-565.68"/>
<polygon fill="black" stroke="black" points="1125.87,-566.45 1130.72,-575.87 1132.8,-565.48 1125.87,-566.45"/>
</g>
<!-- Low Labour Standards -->
<g id="node18" class="node">
<title>Low Labour Standards</title>
<polygon fill="#dd1367" stroke="black" points="1419.5,-396 1278.5,-396 1278.5,-360 1419.5,-360 1419.5,-396"/>
<text text-anchor="middle" x="1349" y="-374.3" font-family="Times,serif" font-size="14.00">Low Labour Standards</text>
</g>
<!-- Low Labour Standards&#45;&gt;Discrimination -->
<g id="edge48" class="edge">
<title>Low Labour Standards&#45;&gt;Discrimination</title>
<path fill="none" stroke="black" d="M1312.8,-359.88C1292.74,-350.39 1267.63,-338.51 1246.29,-328.42"/>
<polygon fill="black" stroke="black" points="1247.62,-325.18 1237.09,-324.07 1244.63,-331.51 1247.62,-325.18"/>
</g>
<!-- Low Labour Standards&#45;&gt;Economic Inequality -->
<g id="edge46" class="edge">
<title>Low Labour Standards&#45;&gt;Economic Inequality</title>
<path fill="none" stroke="black" d="M1345.57,-396.13C1338.18,-428.66 1317.8,-499.71 1274,-540 1254.96,-557.52 1229.64,-569.37 1205.55,-577.34"/>
<polygon fill="black" stroke="black" points="1204.19,-574.1 1195.68,-580.41 1206.27,-580.78 1204.19,-574.1"/>
</g>
<!-- Low Labour Standards&#45;&gt;Lack of Healthcare -->
<g id="edge47" class="edge">
<title>Low Labour Standards&#45;&gt;Lack of Healthcare</title>
<path fill="none" stroke="black" d="M1330.25,-396.15C1307.99,-415.77 1269.07,-447.78 1231,-468 1187.43,-491.14 1167.67,-477.59 1126,-504 1004.9,-580.75 904,-724.7 866.09,-783.25"/>
<polygon fill="black" stroke="black" points="863,-781.58 860.56,-791.89 868.9,-785.35 863,-781.58"/>
</g>
<!-- Low Labour Standards&#45;&gt;Low Education -->
<g id="edge50" class="edge">
<title>Low Labour Standards&#45;&gt;Low Education</title>
<path fill="none" stroke="black" d="M1355.22,-396.13C1356.82,-414.09 1355.29,-443.13 1352,-468 1343.88,-529.45 1328.23,-600.56 1316.41,-638.28"/>
<polygon fill="black" stroke="black" points="1313.01,-637.4 1313.19,-647.99 1319.66,-639.6 1313.01,-637.4"/>
</g>
<!-- Low Labour Standards&#45;&gt;Lack of Political Voice -->
<g id="edge49" class="edge">
<title>Low Labour Standards&#45;&gt;Lack of Political Voice</title>
<path fill="none" stroke="black" d="M1378.82,-359.88C1397.69,-350.35 1422.48,-338.41 1444.34,-328.28"/>
<polygon fill="black" stroke="black" points="1445.89,-331.43 1453.51,-324.07 1442.96,-325.07 1445.89,-331.43"/>
</g>
<!-- Land Conversion&#45;&gt;Biodiversity Loss -->
<g id="edge52" class="edge">
<title>Land Conversion&#45;&gt;Biodiversity Loss</title>
<path fill="none" stroke="black" d="M334.01,-108.1C332.59,-115.96 330.1,-125.46 327.23,-134.23"/>
<polygon fill="black" stroke="black" points="323.92,-133.1 323.86,-143.7 330.51,-135.45 323.92,-133.1"/>
</g>
<!-- Land Conversion&#45;&gt;Food Shortage -->
<g id="edge51" class="edge">
<title>Land Conversion&#45;&gt;Food Shortage</title>
<path fill="none" stroke="black" d="M367.49,-71.88C386.44,-62.47 410.13,-50.71 430.36,-40.67"/>
<polygon fill="black" stroke="black" points="431.97,-43.77 439.37,-36.19 428.86,-37.5 431.97,-43.77"/>
</g>
<!-- Low Education&#45;&gt;Economic Inequality -->
<g id="edge54" class="edge">
<title>Low Education&#45;&gt;Economic Inequality</title>
<path fill="none" stroke="black" d="M1261.43,-647.88C1237.44,-638.22 1207.27,-626.09 1181.9,-615.88"/>
<polygon fill="black" stroke="black" points="1183.01,-612.55 1172.43,-612.07 1180.4,-619.05 1183.01,-612.55"/>
</g>
<!-- Low Education&#45;&gt;Low Labour Standards -->
<g id="edge55" class="edge">
<title>Low Education&#45;&gt;Low Labour Standards</title>
<path fill="none" stroke="black" d="M1303.08,-647.99C1307.22,-614.02 1325.12,-535.23 1334,-468 1336.72,-447.4 1338.24,-423.95 1340.36,-406.29"/>
<polygon fill="black" stroke="black" points="1343.86,-406.51 1341.78,-396.13 1336.93,-405.55 1343.86,-406.51"/>
</g>
<!-- Low Education&#45;&gt;Lack of Political Voice -->
<g id="edge53" class="edge">
<title>Low Education&#45;&gt;Lack of Political Voice</title>
<path fill="none" stroke="black" d="M1317.78,-647.86C1325.63,-637.73 1335.38,-624.48 1343,-612 1403.39,-513.14 1460.33,-387.07 1483.76,-333.26"/>
<polygon fill="black" stroke="black" points="1486.97,-334.64 1487.74,-324.07 1480.55,-331.86 1486.97,-334.64"/>
</g>
<!-- Market Externalities -->
<g id="node21" class="node">
<title>Market Externalities</title>
<polygon fill="#26bde2" stroke="black" points="1032,-396 904,-396 904,-360 1032,-360 1032,-396"/>
<text text-anchor="middle" x="968" y="-374.3" font-family="Times,serif" font-size="14.00">Market Externalities</text>
</g>
<!-- Market Externalities&#45;&gt;Economic Inequality -->
<g id="edge57" class="edge">
<title>Market Externalities&#45;&gt;Economic Inequality</title>
<path fill="none" stroke="black" d="M971.55,-396.24C978.85,-428.02 998.21,-496.56 1037,-540 1048.27,-552.63 1063.3,-562.98 1077.98,-571.08"/>
<polygon fill="black" stroke="black" points="1076.56,-574.28 1087.04,-575.83 1079.81,-568.08 1076.56,-574.28"/>
</g>
<!-- Market Externalities&#45;&gt;Polluting Industry -->
<g id="edge59" class="edge">
<title>Market Externalities&#45;&gt;Polluting Industry</title>
<path fill="none" stroke="black" d="M975.91,-359.7C979.55,-351.73 983.95,-342.1 987.99,-333.26"/>
<polygon fill="black" stroke="black" points="991.21,-334.65 992.18,-324.1 984.84,-331.74 991.21,-334.65"/>
</g>
<!-- Market Externalities&#45;&gt;Inefficiency -->
<g id="edge58" class="edge">
<title>Market Externalities&#45;&gt;Inefficiency</title>
<path fill="none" stroke="black" d="M1010.42,-359.98C1029.13,-351.11 1050.56,-338.96 1067,-324 1086.59,-306.17 1102.69,-280.52 1113.09,-261.34"/>
<polygon fill="black" stroke="black" points="1116.32,-262.72 1117.87,-252.24 1110.12,-259.46 1116.32,-262.72"/>
</g>
<!-- Unsustainable Harvesting -->
<g id="node30" class="node">
<title>Unsustainable Harvesting</title>
<polygon fill="#3f7e44" stroke="black" points="810,-324 654,-324 654,-288 810,-288 810,-324"/>
<text text-anchor="middle" x="732" y="-302.3" font-family="Times,serif" font-size="14.00">Unsustainable Harvesting</text>
</g>
<!-- Market Externalities&#45;&gt;Unsustainable Harvesting -->
<g id="edge56" class="edge">
<title>Market Externalities&#45;&gt;Unsustainable Harvesting</title>
<path fill="none" stroke="black" d="M910.57,-359.97C877.02,-350.01 834.51,-337.41 799.39,-326.99"/>
<polygon fill="black" stroke="black" points="800.27,-323.6 789.69,-324.11 798.28,-330.31 800.27,-323.6"/>
</g>
<!-- Monopoly -->
<g id="node22" class="node">
<title>Monopoly</title>
<polygon fill="#26bde2" stroke="black" points="1222,-468 1148,-468 1148,-432 1222,-432 1222,-468"/>
<text text-anchor="middle" x="1185" y="-446.3" font-family="Times,serif" font-size="14.00">Monopoly</text>
</g>
<!-- Monopoly&#45;&gt;Polluting Industry -->
<g id="edge61" class="edge">
<title>Monopoly&#45;&gt;Polluting Industry</title>
<path fill="none" stroke="black" d="M1162.68,-431.87C1129.63,-406.5 1067.56,-358.85 1030.38,-330.32"/>
<polygon fill="black" stroke="black" points="1032.46,-327.5 1022.39,-324.19 1028.2,-333.05 1032.46,-327.5"/>
</g>
<!-- Monopoly&#45;&gt;Inefficiency -->
<g id="edge62" class="edge">
<title>Monopoly&#45;&gt;Inefficiency</title>
<path fill="none" stroke="black" d="M1194.53,-431.8C1204.6,-413.76 1221.06,-384.68 1236,-360 1245.83,-343.76 1253.68,-342.22 1259,-324 1263.49,-308.64 1267.98,-301.24 1259,-288 1240.78,-261.13 1206.54,-247.88 1177.36,-241.35"/>
<polygon fill="black" stroke="black" points="1177.78,-237.87 1167.29,-239.31 1176.39,-244.73 1177.78,-237.87"/>
</g>
<!-- Monopoly&#45;&gt;Low Labour Standards -->
<g id="edge64" class="edge">
<title>Monopoly&#45;&gt;Low Labour Standards</title>
<path fill="none" stroke="black" d="M1222.21,-433.12C1245.18,-423.32 1274.89,-410.63 1299.79,-400.01"/>
<polygon fill="black" stroke="black" points="1301.24,-403.19 1309.07,-396.04 1298.5,-396.75 1301.24,-403.19"/>
</g>
<!-- Monopoly&#45;&gt;Market Externalities -->
<g id="edge60" class="edge">
<title>Monopoly&#45;&gt;Market Externalities</title>
<path fill="none" stroke="black" d="M1147.9,-435.1C1144.9,-434.03 1141.9,-432.99 1139,-432 1104.99,-420.46 1066.85,-408.53 1035.23,-398.93"/>
<polygon fill="black" stroke="black" points="1036.22,-395.57 1025.64,-396.03 1034.19,-402.27 1036.22,-395.57"/>
</g>
<!-- Monopoly&#45;&gt;Systemic Corruption -->
<g id="edge63" class="edge">
<title>Monopoly&#45;&gt;Systemic Corruption</title>
<path fill="none" stroke="black" d="M1194.56,-468.1C1197.01,-475.79 1199.23,-485.05 1200.75,-493.67"/>
<polygon fill="black" stroke="black" points="1197.3,-494.31 1202.21,-503.7 1204.23,-493.3 1197.3,-494.31"/>
</g>
<!-- Nitrogen &amp; Phosphorous Loading&#45;&gt;Biodiversity Loss -->
<g id="edge66" class="edge">
<title>Nitrogen &amp; Phosphorous Loading&#45;&gt;Biodiversity Loss</title>
<path fill="none" stroke="black" d="M337.09,-215.7C333.45,-207.73 329.05,-198.1 325.01,-189.26"/>
<polygon fill="black" stroke="black" points="328.16,-187.74 320.82,-180.1 321.79,-190.65 328.16,-187.74"/>
</g>
<!-- Nitrogen &amp; Phosphorous Loading&#45;&gt;Food Shortage -->
<g id="edge65" class="edge">
<title>Nitrogen &amp; Phosphorous Loading&#45;&gt;Food Shortage</title>
<path fill="none" stroke="black" d="M355.78,-215.87C362.27,-205.51 370.67,-192.03 378,-180 406.82,-132.7 439.75,-77.13 458.59,-45.19"/>
<polygon fill="black" stroke="black" points="461.68,-46.85 463.74,-36.46 455.65,-43.3 461.68,-46.85"/>
</g>
<!-- Ocean Degradation&#45;&gt;Biodiversity Loss -->
<g id="edge68" class="edge">
<title>Ocean Degradation&#45;&gt;Biodiversity Loss</title>
<path fill="none" stroke="black" d="M143.51,-215.97C175.22,-206.06 215.36,-193.51 248.61,-183.12"/>
<polygon fill="black" stroke="black" points="249.74,-186.43 258.25,-180.11 247.66,-179.75 249.74,-186.43"/>
</g>
<!-- Ocean Degradation&#45;&gt;Food Shortage -->
<g id="edge67" class="edge">
<title>Ocean Degradation&#45;&gt;Food Shortage</title>
<path fill="none" stroke="black" d="M101.32,-215.74C115.27,-196.88 139.29,-166.38 164,-144 205.94,-106.02 217.5,-95.44 269,-72 316.14,-50.55 373.48,-36.66 415.52,-28.5"/>
<polygon fill="black" stroke="black" points="416.41,-31.89 425.59,-26.6 415.11,-25.02 416.41,-31.89"/>
</g>
<!-- Lack of Political Voice&#45;&gt;Lack of Community Networks -->
<g id="edge69" class="edge">
<title>Lack of Political Voice&#45;&gt;Lack of Community Networks</title>
<path fill="none" stroke="black" d="M1537.35,-324.07C1583.25,-345.69 1650,-387.69 1650,-449 1650,-739 1650,-739 1650,-739 1650,-797.18 1590.14,-837.2 1543.42,-859.58"/>
<polygon fill="black" stroke="black" points="1541.88,-856.44 1534.28,-863.82 1544.82,-862.79 1541.88,-856.44"/>
</g>
<!-- Lack of Political Voice&#45;&gt;Low Labour Standards -->
<g id="edge71" class="edge">
<title>Lack of Political Voice&#45;&gt;Low Labour Standards</title>
<path fill="none" stroke="black" d="M1465.05,-324.19C1446.22,-333.69 1421.54,-345.58 1399.75,-355.67"/>
<polygon fill="black" stroke="black" points="1398.24,-352.52 1390.61,-359.88 1401.16,-358.88 1398.24,-352.52"/>
</g>
<!-- Lack of Political Voice&#45;&gt;Social Inequity -->
<g id="edge70" class="edge">
<title>Lack of Political Voice&#45;&gt;Social Inequity</title>
<path fill="none" stroke="black" d="M1496.12,-324.1C1492.58,-360.25 1476,-447.19 1476,-521 1476,-595 1476,-595 1476,-595 1476,-637.04 1458.86,-683.31 1444.14,-711.25"/>
<polygon fill="black" stroke="black" points="1441.08,-709.55 1439.27,-719.99 1447.19,-712.96 1441.08,-709.55"/>
</g>
<!-- Social Inequity&#45;&gt;Lack of Community Networks -->
<g id="edge74" class="edge">
<title>Social Inequity&#45;&gt;Lack of Community Networks</title>
<path fill="none" stroke="black" d="M1437.34,-756.19C1450.93,-780.64 1471.5,-825.67 1482.43,-854.44"/>
<polygon fill="black" stroke="black" points="1479.15,-855.67 1485.86,-863.87 1485.73,-853.28 1479.15,-855.67"/>
</g>
<!-- Social Inequity&#45;&gt;Low Education -->
<g id="edge75" class="edge">
<title>Social Inequity&#45;&gt;Low Education</title>
<path fill="none" stroke="black" d="M1395.4,-719.88C1379.43,-710.64 1359.54,-699.13 1342.39,-689.21"/>
<polygon fill="black" stroke="black" points="1344.12,-686.17 1333.71,-684.19 1340.62,-692.23 1344.12,-686.17"/>
</g>
<!-- Social Inequity&#45;&gt;Lack of Political Voice -->
<g id="edge72" class="edge">
<title>Social Inequity&#45;&gt;Lack of Political Voice</title>
<path fill="none" stroke="black" d="M1427.73,-719.99C1436.77,-693.82 1458,-641.79 1458,-595 1458,-595 1458,-595 1458,-521 1458,-453.1 1472.03,-374.09 1483.42,-333.73"/>
<polygon fill="black" stroke="black" points="1486.79,-334.68 1486.33,-324.1 1480.09,-332.66 1486.79,-334.68"/>
</g>
<!-- Social Inequity&#45;&gt;Unrest &amp; Injustice -->
<g id="edge73" class="edge">
<title>Social Inequity&#45;&gt;Unrest &amp; Injustice</title>
<path fill="none" stroke="black" d="M1444.78,-719.8C1456.8,-710.6 1471.37,-698.23 1481,-684 1525.54,-618.22 1543.99,-523.89 1554.21,-478.05"/>
<polygon fill="black" stroke="black" points="1557.63,-478.79 1556.46,-468.26 1550.81,-477.23 1557.63,-478.79"/>
</g>
<!-- Sprawl&#45;&gt;Lack of Affordable Housing -->
<g id="edge78" class="edge">
<title>Sprawl&#45;&gt;Lack of Affordable Housing</title>
<path fill="none" stroke="black" d="M724.73,-822.1C768.07,-841.32 854.02,-880.56 931,-900 1047,-929.29 1184.13,-942.5 1273.7,-948.39"/>
<polygon fill="black" stroke="black" points="1273.64,-951.9 1283.84,-949.04 1274.08,-944.91 1273.64,-951.9"/>
</g>
<!-- Sprawl&#45;&gt;Inefficiency -->
<g id="edge77" class="edge">
<title>Sprawl&#45;&gt;Inefficiency</title>
<path fill="none" stroke="black" d="M701.08,-791.71C705.76,-773.36 714.33,-743.78 726,-720 760.11,-650.5 771.92,-633.28 824,-576 908.3,-483.29 954.59,-486.75 1041,-396 1068.58,-367.03 1076.2,-359.31 1095,-324 1105.59,-304.11 1113.76,-279.86 1119.05,-261.7"/>
<polygon fill="black" stroke="black" points="1122.42,-262.62 1121.75,-252.05 1115.68,-260.73 1122.42,-262.62"/>
</g>
<!-- Sprawl&#45;&gt;Land Conversion -->
<g id="edge76" class="edge">
<title>Sprawl&#45;&gt;Land Conversion</title>
<path fill="none" stroke="black" d="M669.21,-804.68C609.43,-793.66 474,-758.57 474,-667 474,-667 474,-667 474,-305 474,-264.55 474.1,-251.65 455,-216 432.71,-174.4 392.43,-137.18 364.28,-114.39"/>
<polygon fill="black" stroke="black" points="366.33,-111.55 356.32,-108.07 361.97,-117.03 366.33,-111.55"/>
</g>
<!-- Systemic Corruption&#45;&gt;Economic Inequality -->
<g id="edge79" class="edge">
<title>Systemic Corruption&#45;&gt;Economic Inequality</title>
<path fill="none" stroke="black" d="M1188.79,-540.1C1181.08,-548.72 1170.67,-559.32 1160.7,-568.76"/>
<polygon fill="black" stroke="black" points="1158.17,-566.33 1153.22,-575.7 1162.93,-571.46 1158.17,-566.33"/>
</g>
<!-- Systemic Corruption&#45;&gt;Inefficiency -->
<g id="edge80" class="edge">
<title>Systemic Corruption&#45;&gt;Inefficiency</title>
<path fill="none" stroke="black" d="M1211.39,-503.87C1217.77,-493.75 1225.52,-480.5 1231,-468 1257.85,-406.7 1265.11,-390.19 1275,-324 1277.36,-308.18 1284.23,-301.07 1275,-288 1253.05,-256.9 1211.17,-243.94 1177.38,-238.59"/>
<polygon fill="black" stroke="black" points="1177.58,-235.09 1167.19,-237.17 1176.61,-242.02 1177.58,-235.09"/>
</g>
<!-- Systemic Corruption&#45;&gt;Inflation -->
<g id="edge83" class="edge">
<title>Systemic Corruption&#45;&gt;Inflation</title>
<path fill="none" stroke="black" d="M1175.05,-503.88C1161.96,-494.89 1145.74,-483.76 1131.56,-474.03"/>
<polygon fill="black" stroke="black" points="1133.27,-470.96 1123.05,-468.19 1129.31,-476.73 1133.27,-470.96"/>
</g>
<!-- Systemic Corruption&#45;&gt;Monopoly -->
<g id="edge81" class="edge">
<title>Systemic Corruption&#45;&gt;Monopoly</title>
<path fill="none" stroke="black" d="M1190.38,-503.7C1187.93,-495.98 1185.71,-486.71 1184.21,-478.11"/>
<polygon fill="black" stroke="black" points="1187.66,-477.5 1182.77,-468.1 1180.73,-478.5 1187.66,-477.5"/>
</g>
<!-- Systemic Corruption&#45;&gt;Social Inequity -->
<g id="edge82" class="edge">
<title>Systemic Corruption&#45;&gt;Social Inequity</title>
<path fill="none" stroke="black" d="M1227.15,-540.02C1261.27,-562.23 1320.51,-603.52 1363,-648 1381.44,-667.31 1398.48,-692.53 1410,-711.19"/>
<polygon fill="black" stroke="black" points="1407.03,-713.04 1415.2,-719.77 1413.01,-709.41 1407.03,-713.04"/>
</g>
<!-- Systemic Corruption&#45;&gt;Unrest &amp; Injustice -->
<g id="edge84" class="edge">
<title>Systemic Corruption&#45;&gt;Unrest &amp; Injustice</title>
<path fill="none" stroke="black" d="M1265.32,-508.4C1329.87,-495.96 1428.26,-476.98 1494.05,-464.3"/>
<polygon fill="black" stroke="black" points="1494.76,-467.72 1503.92,-462.39 1493.43,-460.85 1494.76,-467.72"/>
</g>
<!-- Unrest &amp; Injustice&#45;&gt;Lack of Community Networks -->
<g id="edge85" class="edge">
<title>Unrest &amp; Injustice&#45;&gt;Lack of Community Networks</title>
<path fill="none" stroke="black" d="M1564.38,-468.04C1566.42,-494.68 1570,-547.83 1570,-593 1570,-739 1570,-739 1570,-739 1570,-785.04 1537.48,-829.75 1513.65,-856.33"/>
<polygon fill="black" stroke="black" points="1510.79,-854.26 1506.58,-863.98 1515.93,-859.01 1510.79,-854.26"/>
</g>
<!-- Unrest &amp; Injustice&#45;&gt;Social Inequity -->
<g id="edge86" class="edge">
<title>Unrest &amp; Injustice&#45;&gt;Social Inequity</title>
<path fill="none" stroke="black" d="M1565.61,-468.26C1564.7,-509.02 1547.01,-613.1 1499,-684 1491.32,-695.34 1480.52,-705.5 1469.47,-713.81"/>
<polygon fill="black" stroke="black" points="1467.15,-711.16 1461.02,-719.8 1471.2,-716.87 1467.15,-711.16"/>
</g>
<!-- Unsustainable Harvesting&#45;&gt;Chemical Pollution -->
<g id="edge87" class="edge">
<title>Unsustainable Harvesting&#45;&gt;Chemical Pollution</title>
<path fill="none" stroke="black" d="M718.4,-287.7C711.88,-279.39 703.93,-269.28 696.75,-260.14"/>
<polygon fill="black" stroke="black" points="699.37,-257.81 690.44,-252.1 693.87,-262.13 699.37,-257.81"/>
</g>
<!-- Unsustainable Harvesting&#45;&gt;Freshwater Depletion -->
<g id="edge90" class="edge">
<title>Unsustainable Harvesting&#45;&gt;Freshwater Depletion</title>
<path fill="none" stroke="black" d="M753.71,-287.79C763.76,-278.41 774.64,-265.9 780,-252 785.76,-237.07 787.91,-229.91 780,-216 772.64,-203.04 760.71,-192.92 747.95,-185.16"/>
<polygon fill="black" stroke="black" points="749.47,-181.99 739.03,-180.15 746.04,-188.1 749.47,-181.99"/>
</g>
<!-- Unsustainable Harvesting&#45;&gt;Inefficiency -->
<g id="edge88" class="edge">
<title>Unsustainable Harvesting&#45;&gt;Inefficiency</title>
<path fill="none" stroke="black" d="M810.3,-296.89C878.19,-288.96 979.09,-275 1075.1,-251.99"/>
<polygon fill="black" stroke="black" points="1076.08,-255.35 1084.97,-249.59 1074.42,-248.55 1076.08,-255.35"/>
</g>
<!-- Unsustainable Harvesting&#45;&gt;Land Conversion -->
<g id="edge91" class="edge">
<title>Unsustainable Harvesting&#45;&gt;Land Conversion</title>
<path fill="none" stroke="black" d="M741.94,-287.75C751.66,-268.33 762.88,-236.8 747,-216 710.09,-167.67 673.34,-197.15 615,-180 538.64,-157.55 451.35,-129.65 394.36,-111.14"/>
<polygon fill="black" stroke="black" points="395.38,-107.78 384.79,-108.02 393.21,-114.44 395.38,-107.78"/>
</g>
<!-- Unsustainable Harvesting&#45;&gt;Nitrogen &amp; Phosphorous Loading -->
<g id="edge89" class="edge">
<title>Unsustainable Harvesting&#45;&gt;Nitrogen &amp; Phosphorous Loading</title>
<path fill="none" stroke="black" d="M653.68,-290.83C594.88,-280.2 513.76,-265.52 449.43,-253.89"/>
<polygon fill="black" stroke="black" points="449.72,-250.38 439.26,-252.05 448.47,-257.27 449.72,-250.38"/>
</g>
</g>
</svg>
